<svg width="159" height="34" viewBox="0 0 159 34" fill="none" xmlns="http://www.w3.org/2000/svg">
<path d="M20.6445 14.4316C20.8984 14.4023 21.1426 14.3926 21.377 14.3926C22.9883 14.3926 24.209 15.0176 24.6191 16.0918C24.6875 16.2871 24.7363 16.4922 24.7363 16.7461C24.7363 16.834 24.7266 16.9316 24.7168 17.0391C24.5801 19.8418 19.9609 22.3418 13.9258 22.8984C13.7988 22.9082 13.6621 22.918 13.5449 22.9277C12.9492 22.9766 12.8613 22.957 12.6172 23.416C12.5586 23.5332 12.4414 23.6016 12.3145 23.6016C12.207 23.6016 12.0898 23.5527 12.0117 23.4258C11.9531 23.3281 11.8848 23.1914 11.8848 23.1328C11.8848 23.0156 11.6895 22.9961 10.2246 22.957C6.03516 22.8301 2.66602 21.9512 1.28906 20.623C0.664062 19.998 0.410156 19.4414 0.410156 18.6602C0.429688 17.4688 1.09375 16.3555 2.5293 15.1348C6.66016 11.6484 13.4766 9.38281 18.9355 9.38281C20.2832 9.38281 21.543 9.51953 22.666 9.8125C23.623 10.0664 24.1699 10.2617 24.9316 10.6328C26.2305 11.2578 27.0898 12 27.5 12.8594C27.7344 13.3379 27.7539 13.4355 27.7539 14.1191C27.7539 14.9395 27.6172 15.3105 27.3438 15.3496C27.3145 15.3594 27.2754 15.3594 27.2461 15.3594C27.0508 15.3594 26.9727 15.2129 26.9727 14.8027C26.9727 14.6855 26.9824 14.5488 26.9922 14.3926C27.002 14.2559 27.002 14.1289 27.002 14.0117C27.002 13.3281 26.8359 13.0059 26.2695 12.4297C25.1758 11.3359 23.0762 10.5156 20.7422 10.2422C20.1465 10.1738 19.5215 10.1348 18.877 10.1348C13.418 10.1348 6.42578 12.5859 2.7832 15.916C1.69922 16.9219 1.16211 17.8301 1.16211 18.6992C1.16211 18.8848 1.18164 19.0703 1.23047 19.2461C1.44531 19.998 2.7832 20.916 4.28711 21.3457C6.07422 21.8633 9.05273 22.2637 11.377 22.2637C11.9531 22.2637 12.2461 22.0293 12.3828 21.7266C13.3984 19.4512 14.1016 18.3281 15.3418 17.0977C16.9238 15.4863 18.5938 14.666 20.6445 14.4316ZM23.9941 17.1172C24.0039 17.0391 24.0137 16.9707 24.0137 16.8926C24.0137 16.2578 23.5547 15.6523 22.8027 15.3496C22.4902 15.2324 21.9824 15.1738 21.4258 15.1738C20.8008 15.1738 20.1172 15.2422 19.5703 15.3887C17.1387 16.0332 15.0391 17.957 13.6523 20.8184C13.5156 21.0723 13.3984 21.3262 13.3008 21.5312C13.252 21.6387 13.2227 21.7363 13.2227 21.8145C13.2227 22.0488 13.4473 22.1465 13.8086 22.1465C13.8574 22.1465 13.916 22.1367 13.9746 22.1367C14.2969 22.1074 14.6973 22.0488 15.1758 21.9707C19.9805 21.3066 23.6621 19.2656 23.9941 17.1172ZM35.7422 18.9434C37.3438 18.9824 37.5195 19.0215 37.5195 19.3145C37.5195 19.6758 37.3633 19.7148 35.8203 19.7148C33.75 19.7148 32.3633 19.4805 31.0742 18.9629C30.8594 18.875 30.6836 18.8262 30.5273 18.8262C30.2051 18.8262 30.0098 19.0312 29.9219 19.4316C29.4629 20.7402 28.4473 21.7168 27.6465 21.7168C27.4902 21.7168 27.334 21.6777 27.1973 21.5898C26.8652 21.3848 26.6992 20.9648 26.6992 20.457C26.6992 19.5879 27.1777 18.4258 28.0078 17.5762C28.3398 17.2246 28.7207 16.9902 28.916 16.9902C28.9551 16.9902 28.9844 17 29.0039 17.0098C29.043 17.0488 29.1992 17.0684 29.3359 17.0684H29.3945C29.5703 17.0684 29.6973 17.1562 29.9805 17.4004C30.4297 17.8301 31.5332 18.3965 32.373 18.5918C33.3105 18.8457 34.0527 18.9238 35.7422 18.9434ZM29.3164 18.5918V18.4844C29.3164 17.9961 29.2383 17.752 29.0625 17.752C28.9258 17.752 28.75 17.8789 28.5156 18.123C27.9395 18.7285 27.4316 19.8711 27.4316 20.4961C27.4316 20.5938 27.4414 20.6816 27.4707 20.75C27.5391 20.8867 27.6074 20.9551 27.7148 20.9551C27.8027 20.9551 27.9297 20.9062 28.0859 20.8086C28.6719 20.4375 29.3164 19.2949 29.3164 18.5918ZM49.9609 18.9629C50.0879 19.0215 50.1562 19.1191 50.1562 19.2363C50.1562 19.3535 50.0977 19.4805 49.9805 19.5977C49.6289 19.9102 48.4473 20.5938 47.2949 21.1406C45.1172 22.1758 44.1016 22.4883 42.5977 22.5469C42.4414 22.5469 42.3047 22.5566 42.168 22.5566C41.7383 22.5566 41.416 22.5273 41.1621 22.4688C40.498 22.3125 39.9121 21.9805 39.6777 21.6289C39.5508 21.4336 39.4824 21.1699 39.4824 20.8574C39.4824 20.5547 39.541 20.2031 39.6582 19.8125C39.7363 19.4902 39.8145 19.1387 39.8145 19.0215C39.8145 18.7871 39.7168 18.4453 39.4824 18.1523C39.4434 18.0938 39.3652 18.0645 39.2676 18.0645C39.1016 18.0645 38.8965 18.1523 38.7695 18.2988C38.0664 19.1191 37.4805 19.6172 37.1875 19.6172C36.9922 19.6172 36.9141 19.5781 36.875 19.4512C36.8555 19.4023 36.8555 19.3535 36.8555 19.3145C36.8555 19.1289 37.002 18.9531 37.4609 18.5723C38.0859 18.0449 38.75 17.1855 38.8281 16.8145C38.8672 16.5801 39.043 16.4043 39.2676 16.4043C39.4238 16.4043 39.6582 16.7168 39.6582 16.9121C39.6582 17.0293 39.7754 17.2832 39.9121 17.4785C40.3516 18.084 40.5469 18.4453 40.5469 18.9434C40.5469 19.2266 40.4883 19.5391 40.3809 19.9688C40.2832 20.3887 40.2246 20.6719 40.2246 20.877C40.2246 21.209 40.3906 21.3262 40.791 21.5312C41.2207 21.7461 41.3574 21.7656 42.1387 21.7852C42.2559 21.7949 42.3828 21.7949 42.4902 21.7949C43.75 21.7949 44.7656 21.4922 46.6309 20.6328C47.6855 20.1445 48.291 19.8125 49.3555 19.1387C49.5898 18.9824 49.707 18.9238 49.8047 18.9238C49.8535 18.9238 49.9023 18.9336 49.9609 18.9629ZM60.8789 19.2168C61.0938 19.0801 61.2793 19.002 61.4258 19.002C61.543 19.002 61.6309 19.0508 61.6797 19.1582C61.709 19.207 61.7188 19.2559 61.7188 19.3047C61.7188 19.6367 61.1328 20.0371 59.834 20.6523C58.5938 21.248 57.0996 21.5508 55.5664 21.5508C54.1113 21.5508 52.627 21.2773 51.2891 20.7305C51.0254 20.623 50.791 20.5742 50.5859 20.5742C50.2637 20.5742 50.0293 20.7012 49.9121 20.916C49.7656 21.1699 49.5703 21.502 49.3555 21.9023C49.1602 22.2734 48.9844 22.4492 48.8184 22.4492C48.75 22.4492 48.6816 22.4199 48.6133 22.3516C48.5547 22.293 48.5254 22.2148 48.5254 22.0977C48.5254 21.8633 48.6426 21.4629 48.9062 20.75C50.5957 16.248 53.252 11.5215 54.2578 11.2871C54.2969 11.2773 54.3262 11.2773 54.3555 11.2773C54.5801 11.2773 54.7559 11.4629 54.7559 11.6973C54.7559 11.7363 54.7559 11.7754 54.7461 11.8145C54.6094 12.5762 52.8613 15.3008 51.6309 16.7363C51.4551 16.9219 51.3379 17.2344 51.3379 17.4004C51.3379 17.4785 51.3574 17.5176 51.4062 17.5176C51.4453 17.5176 51.4941 17.498 51.5527 17.4395C52.3145 16.6387 53.1348 15.9844 53.5645 15.8672C53.6328 15.8477 53.7012 15.8379 53.7695 15.8379C54.0625 15.8379 54.3066 16.0039 54.3555 16.2871C54.3652 16.3262 54.3652 16.3555 54.3652 16.3945C54.3652 17.166 53.1641 18.6016 51.8652 19.3926C51.6406 19.5293 51.5625 19.666 51.5625 19.7734C51.5625 19.9688 51.7773 20.1152 51.9531 20.1738C53.1348 20.5742 54.4727 20.7793 55.752 20.7793C56.7871 20.7793 57.7832 20.6426 58.623 20.3594C59.1504 20.1641 60.4297 19.5195 60.8789 19.2168ZM51.9043 18.123C51.5527 18.5234 51.377 18.748 51.377 18.7969C51.377 18.8066 51.377 18.8164 51.3867 18.8164C51.4453 18.8164 51.6602 18.6699 52.0215 18.3965C52.2168 18.2598 52.5293 17.9863 52.6855 17.791C53.0176 17.4199 53.418 16.8828 53.418 16.8242C53.418 16.8145 53.4082 16.8145 53.4082 16.8145C53.2715 16.8145 52.334 17.6348 51.9043 18.123ZM62.9883 17.2734C62.8418 17.2734 62.6953 17.2246 62.5781 17.1074C62.4902 17.0293 62.4023 16.873 62.4023 16.7461C62.4023 16.541 62.7734 16.1504 62.998 16.1504C63.2812 16.1504 63.5742 16.4043 63.5742 16.7168C63.5742 17.0488 63.2812 17.2734 62.9883 17.2734ZM70.5469 19.002C70.6738 19.0898 70.7422 19.168 70.7422 19.2754C70.7422 19.5098 70.332 19.8516 69.2676 20.6133C67.7734 21.6973 65.5078 22.8203 63.5547 22.8203C63.2129 22.8203 62.8711 22.7812 62.5488 22.7031C61.2207 22.3809 60.7324 21.4336 60.7324 20.5254C60.7324 19.5586 61.2793 18.6309 61.9141 18.5137H61.9531C62.1875 18.5137 62.2754 18.6895 62.2754 18.8652C62.2754 18.9531 62.2461 19.0508 62.1973 19.1094C61.9238 19.4414 61.6211 20.0469 61.6211 20.6328C61.6211 21.082 61.7969 21.5215 62.2949 21.8242C62.4902 21.9414 63.0078 22 63.5938 22C64.2578 22 65.0098 21.9219 65.4492 21.7656C66.7969 21.3164 68.1152 20.5547 70.0098 19.1191C70.1953 18.9824 70.2734 18.9238 70.3516 18.9238C70.4102 18.9238 70.459 18.9531 70.5469 19.002ZM108.652 10.3203C108.789 10.3984 108.857 10.5156 108.857 10.6328C108.857 10.7207 108.818 10.8086 108.73 10.8867C108.623 10.9648 108.525 10.9941 108.311 10.9941C108.252 10.9941 108.174 10.9844 108.086 10.9844C107.256 10.9062 100.146 10.5547 98.7402 10.5156H98.623C97.7539 10.5156 97.0996 10.7305 96.7383 11.5801C96.543 12.0293 96.1914 12.8301 95.957 13.3574C95.5078 14.3145 95.0977 15.6133 94.502 17.8887C94.2676 18.9043 93.2031 23.2988 93.2031 23.377C93.2031 23.4551 92.9492 23.6699 92.8711 23.6699C92.8125 23.6699 92.7148 23.6309 92.6367 23.5918C92.5586 23.5332 92.5 23.416 92.5 23.2598C92.5 22.9863 93.6426 18.1816 94.0332 16.7266C94.2188 16.0527 94.2969 15.7695 94.2969 15.6133C94.2969 15.5156 94.2578 15.4766 94.1895 15.418C94.1211 15.3594 94.0918 15.3008 94.0918 15.2227C94.0918 15.0957 94.1895 14.9199 94.4043 14.5781C94.7949 13.9824 94.834 13.8652 95.3711 12.1855C95.4395 11.9512 95.4785 11.7656 95.4785 11.6094C95.4785 10.9648 94.9609 10.8477 94.5215 10.8477C93.6328 10.8477 92.168 10.8281 89.8633 10.8281C84.2969 10.8281 83.9062 10.8281 83.7109 10.6914C83.5645 10.584 83.4863 10.4473 83.4863 10.3203C83.4863 10.1738 83.5742 10.0371 83.75 9.96875C84.4043 9.69531 86.9336 9.54883 90.6445 9.54883C91.2402 9.54883 91.875 9.54883 92.5293 9.55859C93.5059 9.57812 94.3066 9.57812 94.9219 9.57812C95.918 9.57812 96.4258 9.55859 96.4258 9.53906C96.4258 9.5 96.5234 9.42188 96.6211 9.36328C96.6797 9.33398 96.748 9.32422 96.8164 9.32422C97.0117 9.32422 97.207 9.42188 97.207 9.55859C97.207 9.65625 97.4609 9.69531 98.3691 9.73438C103.672 9.96875 108.535 10.2617 108.652 10.3203ZM128.115 19.0605C128.203 18.9824 128.291 18.9531 128.379 18.9531C128.486 18.9531 128.574 19.0117 128.643 19.1387C128.672 19.1973 128.691 19.2559 128.691 19.3145C128.691 19.5098 128.506 19.7051 128.076 20.0371C126.572 21.1797 124.043 22.293 122.1 22.6641C121.436 22.8008 120.43 22.8691 119.6 22.8691C119.072 22.8691 118.623 22.8398 118.359 22.7812C116.436 22.3418 115.127 21.1309 114.873 19.4707C114.805 19.002 114.619 18.8555 114.414 18.8555C114.141 18.8555 113.809 19.1094 113.623 19.2559C112.354 20.291 110.938 21.0625 109.824 21.4141C109.326 21.5605 108.74 21.6387 108.213 21.6387C107.9 21.6387 107.617 21.6094 107.393 21.5508C106.67 21.3262 106.24 20.8184 105.977 20.0371C105.889 19.7637 105.762 19.666 105.625 19.666C105.352 19.666 105.02 20.0273 104.824 20.2422C103.926 21.2285 103.379 21.6582 102.988 21.6582C102.812 21.6582 102.666 21.5703 102.529 21.4141C102.363 21.2188 102.285 21.0039 102.285 20.6816C102.285 20.4863 102.314 20.252 102.373 19.959C102.607 18.748 103.379 17.5371 104.18 17.0586C104.424 16.9219 104.688 16.8438 104.932 16.8438C105.273 16.8438 105.596 16.9902 105.771 17.2637C105.859 17.3906 105.938 17.4395 106.035 17.4395C106.113 17.4395 106.191 17.4004 106.27 17.3516C106.387 17.2832 106.484 17.2539 106.582 17.2539C106.836 17.2539 106.992 17.4688 106.992 17.7715C106.992 17.9473 106.943 18.1523 106.807 18.3574C106.709 18.4941 106.689 18.7285 106.689 19.2168C106.689 20.0762 106.846 20.4277 107.354 20.6914C107.578 20.8184 107.705 20.8672 108.027 20.8672C108.145 20.8672 108.291 20.8574 108.486 20.8477C109.648 20.7891 110.645 20.3887 112.129 19.3926C113.35 18.6016 114.785 17.4395 115.449 16.0723C115.527 15.9062 115.566 15.7598 115.566 15.6523C115.566 15.3008 115.254 15.1738 114.912 15.1738C114.59 15.1641 114.219 15.1641 113.818 15.1641C111.035 15.1445 110.488 15.0664 110.391 14.6953C110.381 14.6465 110.371 14.5977 110.371 14.5488C110.371 14.207 110.752 13.9922 111.582 13.8652C111.738 13.8457 111.914 13.8359 112.109 13.8359C112.822 13.8359 113.75 13.9727 114.658 14.2461C114.863 14.2949 115.078 14.3438 115.283 14.3828C115.42 14.4023 115.547 14.4219 115.664 14.4219C116.348 14.4219 116.65 14.0215 116.992 13.6113C117.637 12.8496 118.125 12.4688 118.438 12.4688C118.623 12.4688 118.75 12.6055 118.809 12.8691C118.818 12.8887 118.818 12.918 118.818 12.9473C118.818 13.084 118.74 13.3086 118.574 13.6504C118.506 13.8066 118.467 13.9336 118.467 14.0312C118.467 14.2559 118.652 14.3633 119.082 14.3633C119.971 14.3633 121.338 14.3438 122.021 14.2852C122.324 14.2559 122.549 14.2363 122.715 14.2363C123.105 14.2363 123.184 14.334 123.184 14.5781C123.184 14.9297 122.91 14.9883 121.357 15.0664C120.635 15.1055 119.58 15.125 118.926 15.1445C117.988 15.1738 117.617 15.1934 117.148 15.7695C116.963 15.9844 116.729 16.2578 116.504 16.5312C115.771 17.3613 115.732 17.4395 115.654 17.9277C115.605 18.1621 115.586 18.4355 115.586 18.709C115.586 19.1582 115.645 19.6074 115.752 19.9199C116.045 20.75 116.934 21.5508 117.93 21.8828C118.525 22.0684 119.102 22.166 119.785 22.166C120.303 22.166 120.879 22.1074 121.572 22C123.75 21.6289 126.377 20.4668 128.115 19.0605ZM104.062 19.959C105.107 18.8555 105.361 18.5527 105.361 18.2793C105.361 18.25 105.361 18.2109 105.352 18.1816C105.273 17.8301 105.098 17.5762 104.922 17.5762C104.668 17.5762 104.082 18.0254 103.809 18.4551C103.662 18.6699 103.008 19.9785 103.008 20.4668C103.008 20.5742 103.047 20.6523 103.135 20.6523C103.281 20.6523 103.564 20.457 104.062 19.959ZM138.477 19.0117C138.623 19.0508 138.701 19.1875 138.701 19.3438C138.701 19.4219 138.682 19.5098 138.633 19.5977C138.281 20.291 135.088 22.2441 133.457 22.7715C132.578 23.0742 131.777 23.2207 131.094 23.2207C130.693 23.2207 130.342 23.1719 130.029 23.0742C129.443 22.8789 129.111 22.6543 128.682 22.1855C128.232 21.6777 127.998 20.9844 127.998 20.1152C127.998 18.875 128.467 17.2637 129.385 15.3105C129.551 14.9785 129.629 14.7441 129.629 14.5879C129.629 14.3438 129.463 14.2656 129.219 14.2656C129.121 14.2656 129.023 14.2754 128.916 14.2949C128.701 14.334 128.496 14.373 128.369 14.4121C127.656 14.627 126.572 14.7539 125.82 14.7539C125.4 14.7539 125.088 14.7148 125 14.627C124.922 14.5488 124.883 14.4414 124.883 14.3438C124.883 14.2168 124.941 14.0996 125.059 14.0215C125.273 13.875 127.227 13.6016 129.248 13.4746C129.59 13.4551 130.459 13.2891 130.801 12.8008C131.338 12.0391 132.295 10.9062 132.656 10.7109C132.773 10.6523 132.891 10.623 132.998 10.623C133.281 10.623 133.496 10.8086 133.496 11.1211C133.496 11.2676 133.105 12.0391 132.803 12.6445C132.744 12.7617 132.715 12.8594 132.715 12.9375C132.715 13.2207 133.047 13.2891 133.359 13.2891C133.418 13.2891 133.486 13.2793 133.545 13.2793C134.102 13.25 135.039 13.2109 135.85 13.1621C136.602 13.123 137.051 13.1035 137.324 13.1035C137.607 13.1035 137.715 13.123 137.793 13.1621C137.9 13.2402 137.959 13.3086 137.959 13.3965C137.959 13.4551 137.92 13.5332 137.852 13.6309C137.715 13.8066 137.295 13.8652 134.365 13.9824C133.779 14.002 133.242 14.0215 132.812 14.041C132.07 14.0801 131.787 14.2363 131.445 14.627C131.309 14.793 131.162 14.9785 131.016 15.1738C130.557 15.7598 130.049 16.375 129.873 16.5312C129.307 17.0391 128.76 18.7578 128.76 20.0566C128.76 20.7793 128.779 20.877 128.994 21.3066C129.248 21.8145 129.736 22.2051 130.303 22.3613C130.527 22.4297 130.791 22.459 131.094 22.459C131.865 22.459 132.832 22.2441 133.809 21.834C135.029 21.3457 137.061 20.0957 137.832 19.3828C138.125 19.0996 138.271 19.002 138.408 19.002C138.428 19.002 138.457 19.002 138.477 19.0117ZM131.504 13.1621L131.367 13.3965L131.562 13.1816C131.66 13.0645 131.797 12.8398 131.895 12.7031L132.031 12.4492L131.836 12.6836C131.719 12.8008 131.582 13.0254 131.504 13.1621ZM146.855 18.9434C148.457 18.9824 148.633 19.0215 148.633 19.3145C148.633 19.6758 148.477 19.7148 146.934 19.7148C144.863 19.7148 143.477 19.4805 142.188 18.9629C141.973 18.875 141.797 18.8262 141.641 18.8262C141.318 18.8262 141.123 19.0312 141.035 19.4316C140.576 20.7402 139.561 21.7168 138.76 21.7168C138.604 21.7168 138.447 21.6777 138.311 21.5898C137.979 21.3848 137.812 20.9648 137.812 20.457C137.812 19.5879 138.291 18.4258 139.121 17.5762C139.453 17.2246 139.834 16.9902 140.029 16.9902C140.068 16.9902 140.098 17 140.117 17.0098C140.156 17.0488 140.312 17.0684 140.449 17.0684H140.508C140.684 17.0684 140.811 17.1562 141.094 17.4004C141.543 17.8301 142.646 18.3965 143.486 18.5918C144.424 18.8457 145.166 18.9238 146.855 18.9434ZM140.43 18.5918V18.4844C140.43 17.9961 140.352 17.752 140.176 17.752C140.039 17.752 139.863 17.8789 139.629 18.123C139.053 18.7285 138.545 19.8711 138.545 20.4961C138.545 20.5938 138.555 20.6816 138.584 20.75C138.652 20.8867 138.721 20.9551 138.828 20.9551C138.916 20.9551 139.043 20.9062 139.199 20.8086C139.785 20.4375 140.43 19.2949 140.43 18.5918ZM156.836 18.9434C158.438 18.9824 158.613 19.0215 158.613 19.3145C158.613 19.6758 158.457 19.7148 156.914 19.7148C154.844 19.7148 153.457 19.4805 152.168 18.9629C151.953 18.875 151.777 18.8262 151.621 18.8262C151.299 18.8262 151.104 19.0312 151.016 19.4316C150.557 20.7402 149.541 21.7168 148.74 21.7168C148.584 21.7168 148.428 21.6777 148.291 21.5898C147.959 21.3848 147.793 20.9648 147.793 20.457C147.793 19.5879 148.271 18.4258 149.102 17.5762C149.434 17.2246 149.814 16.9902 150.01 16.9902C150.049 16.9902 150.078 17 150.098 17.0098C150.137 17.0488 150.293 17.0684 150.43 17.0684H150.488C150.664 17.0684 150.791 17.1562 151.074 17.4004C151.523 17.8301 152.627 18.3965 153.467 18.5918C154.404 18.8457 155.146 18.9238 156.836 18.9434ZM150.41 18.5918V18.4844C150.41 17.9961 150.332 17.752 150.156 17.752C150.02 17.752 149.844 17.8789 149.609 18.123C149.033 18.7285 148.525 19.8711 148.525 20.4961C148.525 20.5938 148.535 20.6816 148.564 20.75C148.633 20.8867 148.701 20.9551 148.809 20.9551C148.896 20.9551 149.023 20.9062 149.18 20.8086C149.766 20.4375 150.41 19.2949 150.41 18.5918Z" fill="#000409"/>
</svg>
