<svg xmlns="http://www.w3.org/2000/svg" xmlns:xlink="http://www.w3.org/1999/xlink" width="500" zoomAndPan="magnify" viewBox="0 0 375 374.999991" height="500" preserveAspectRatio="xMidYMid meet" version="1.0"><defs><g/></defs><g fill="#000000" fill-opacity="1"><g transform="translate(90.307366, 210.569151)"><g><path d="M 58.796875 -32.328125 C 58.734375 -32.171875 58.671875 -32.007812 58.609375 -31.84375 C 57.984375 -30.21875 57.3125 -28.617188 56.59375 -27.046875 C 52.851562 -19.285156 48.84375 -11.78125 44.5625 -4.53125 C 43.164062 -2.1875 41.738281 0.113281 40.28125 2.375 C 38.832031 4.632812 37.367188 6.882812 35.890625 9.125 C 35.546875 9.644531 35.191406 10.171875 34.828125 10.703125 C 34.816406 10.742188 34.800781 10.773438 34.78125 10.796875 C 34.695312 10.960938 34.601562 11.097656 34.5 11.203125 C 34.394531 11.304688 34.25 11.359375 34.0625 11.359375 C 33.988281 11.359375 33.90625 11.335938 33.8125 11.296875 C 33.726562 11.253906 33.65625 11.203125 33.59375 11.140625 C 33.550781 11.085938 33.519531 11 33.5 10.875 C 33.488281 10.757812 33.5 10.664062 33.53125 10.59375 C 33.769531 10.070312 34.039062 9.582031 34.34375 9.125 C 35 8.039062 35.660156 6.957031 36.328125 5.875 C 37.585938 3.863281 38.828125 1.851562 40.046875 -0.15625 C 42.742188 -4.65625 45.316406 -9.25 47.765625 -13.9375 C 50.222656 -18.632812 52.625 -23.375 54.96875 -28.15625 C 55.90625 -30.007812 56.675781 -31.988281 57.28125 -34.09375 C 57.40625 -34.457031 57.5 -34.835938 57.5625 -35.234375 C 57.632812 -35.628906 57.671875 -36.035156 57.671875 -36.453125 C 57.609375 -37.359375 57.222656 -37.75 56.515625 -37.625 C 55.890625 -37.5 55.300781 -37.304688 54.75 -37.046875 C 53.4375 -36.410156 52.144531 -35.707031 50.875 -34.9375 C 44.007812 -30.78125 37.757812 -25.613281 32.125 -19.4375 C 32.039062 -19.34375 31.953125 -19.242188 31.859375 -19.140625 C 29.910156 -17.023438 27.976562 -14.890625 26.0625 -12.734375 C 24.144531 -10.585938 22.285156 -8.375 20.484375 -6.09375 C 20.109375 -5.625 19.71875 -5.179688 19.3125 -4.765625 C 18.875 -4.316406 18.347656 -4.140625 17.734375 -4.234375 C 17.472656 -4.265625 17.257812 -4.390625 17.09375 -4.609375 C 16.9375 -4.828125 16.875 -5.085938 16.90625 -5.390625 C 17.03125 -6.191406 17.207031 -6.96875 17.4375 -7.71875 C 18.164062 -10.09375 18.9375 -12.4375 19.75 -14.75 C 19.863281 -15.101562 19.96875 -15.445312 20.0625 -15.78125 C 20.28125 -16.644531 20.585938 -17.445312 20.984375 -18.1875 C 20.984375 -18.195312 20.972656 -18.203125 20.953125 -18.203125 C 20.859375 -18.253906 20.757812 -18.296875 20.65625 -18.328125 C 20.5625 -18.359375 20.460938 -18.328125 20.359375 -18.234375 C 20.003906 -17.835938 19.660156 -17.425781 19.328125 -17 C 16.617188 -13.320312 13.929688 -9.609375 11.265625 -5.859375 C 8.609375 -2.117188 6.007812 1.679688 3.46875 5.546875 C 3.25 5.921875 3.007812 6.222656 2.75 6.453125 C 2.488281 6.691406 2.140625 6.773438 1.703125 6.703125 C 1.503906 6.648438 1.347656 6.53125 1.234375 6.34375 C 1.128906 6.15625 1.109375 5.96875 1.171875 5.78125 C 1.410156 5.257812 1.664062 4.757812 1.9375 4.28125 C 2.726562 2.925781 3.507812 1.570312 4.28125 0.21875 C 5.820312 -2.46875 7.351562 -5.171875 8.875 -7.890625 C 11.226562 -12.054688 13.328125 -16.4375 15.171875 -21.03125 C 15.898438 -22.800781 16.492188 -24.660156 16.953125 -26.609375 C 17.203125 -27.640625 17.304688 -28.71875 17.265625 -29.84375 C 17.148438 -31.65625 16.550781 -32.945312 15.46875 -33.71875 C 14.394531 -34.5 12.976562 -34.867188 11.21875 -34.828125 C 9.457031 -34.785156 7.503906 -34.425781 5.359375 -33.75 C 3.210938 -33.070312 1.015625 -32.171875 -1.234375 -31.046875 C -3.484375 -29.929688 -5.648438 -28.695312 -7.734375 -27.34375 C -9.828125 -26 -11.6875 -24.632812 -13.3125 -23.25 C -14.945312 -21.875 -16.222656 -20.578125 -17.140625 -19.359375 C -18.085938 -18.015625 -18.898438 -16.539062 -19.578125 -14.9375 C -19.910156 -14.164062 -20.101562 -13.332031 -20.15625 -12.4375 C -20.175781 -12.257812 -20.265625 -12.125 -20.421875 -12.03125 C -20.585938 -11.9375 -20.769531 -11.910156 -20.96875 -11.953125 C -21.28125 -12.046875 -21.476562 -12.289062 -21.5625 -12.6875 C -21.613281 -13.207031 -21.570312 -13.679688 -21.4375 -14.109375 C -21.144531 -15.191406 -20.75 -16.210938 -20.25 -17.171875 C -19.351562 -18.859375 -17.984375 -20.582031 -16.140625 -22.34375 C -14.304688 -24.101562 -12.164062 -25.789062 -9.71875 -27.40625 C -7.269531 -29.019531 -4.710938 -30.457031 -2.046875 -31.71875 C 0.609375 -32.976562 3.207031 -33.957031 5.75 -34.65625 C 8.300781 -35.363281 10.597656 -35.679688 12.640625 -35.609375 C 14.679688 -35.535156 16.289062 -34.972656 17.46875 -33.921875 C 18.644531 -32.878906 19.21875 -31.226562 19.1875 -28.96875 C 19.125 -27.507812 18.894531 -26.125 18.5 -24.8125 C 17.925781 -22.882812 17.265625 -21.019531 16.515625 -19.21875 C 15.773438 -17.414062 14.984375 -15.65625 14.140625 -13.9375 C 13.890625 -13.394531 13.835938 -13.128906 13.984375 -13.140625 C 14.128906 -13.160156 14.347656 -13.367188 14.640625 -13.765625 C 15.703125 -15.171875 16.765625 -16.5625 17.828125 -17.9375 C 18.554688 -18.851562 19.296875 -19.753906 20.046875 -20.640625 C 20.140625 -20.765625 20.238281 -20.882812 20.34375 -21 C 20.769531 -21.53125 21.285156 -21.882812 21.890625 -22.0625 C 22.347656 -22.164062 22.734375 -22.0625 23.046875 -21.75 C 23.359375 -21.445312 23.460938 -20.992188 23.359375 -20.390625 C 23.347656 -20.328125 23.332031 -20.265625 23.3125 -20.203125 C 23.144531 -19.421875 22.957031 -18.65625 22.75 -17.90625 C 22.175781 -16.09375 21.585938 -14.296875 20.984375 -12.515625 C 20.679688 -11.597656 20.382812 -10.664062 20.09375 -9.71875 C 20.03125 -9.582031 19.941406 -9.332031 19.828125 -8.96875 C 19.710938 -8.65625 19.597656 -8.347656 19.484375 -8.046875 C 19.378906 -7.742188 19.296875 -7.515625 19.234375 -7.359375 C 19.316406 -7.421875 20.046875 -8.238281 21.421875 -9.8125 C 23.285156 -11.945312 25.492188 -14.453125 28.046875 -17.328125 C 30.609375 -20.210938 32.613281 -22.410156 34.0625 -23.921875 C 36.757812 -26.628906 39.59375 -29.09375 42.5625 -31.3125 C 45.539062 -33.53125 48.628906 -35.539062 51.828125 -37.34375 C 52.617188 -37.75 53.429688 -38.117188 54.265625 -38.453125 C 54.441406 -38.515625 54.613281 -38.585938 54.78125 -38.671875 C 55.5625 -38.984375 56.394531 -39.097656 57.28125 -39.015625 C 58.976562 -38.847656 59.757812 -37.773438 59.625 -35.796875 C 59.519531 -34.566406 59.242188 -33.410156 58.796875 -32.328125 Z M 20.890625 -18.28125 C 20.929688 -18.25 20.960938 -18.222656 20.984375 -18.203125 C 20.984375 -18.203125 20.984375 -18.195312 20.984375 -18.1875 C 20.992188 -18.1875 21 -18.191406 21 -18.203125 C 20.96875 -18.222656 20.929688 -18.25 20.890625 -18.28125 Z M 20.890625 -18.28125 "/></g></g></g><g fill="#000000" fill-opacity="1"><g transform="translate(144.909704, 210.569151)"><g><path d="M 7.625 -5.140625 C 7.113281 -4.628906 6.515625 -4.191406 5.828125 -3.828125 C 5.140625 -3.472656 4.5625 -3.238281 4.09375 -3.125 C 3.632812 -3.007812 3.160156 -2.945312 2.671875 -2.9375 C 1.878906 -2.894531 1.15625 -3 0.5 -3.25 C -0.582031 -3.6875 -0.957031 -4.523438 -0.625 -5.765625 C -0.3125 -6.828125 0.316406 -7.65625 1.265625 -8.25 C 2.222656 -8.851562 3.210938 -9.144531 4.234375 -9.125 C 4.234375 -9.125 4.242188 -9.125 4.265625 -9.125 C 4.523438 -9.144531 4.769531 -9.125 5 -9.0625 C 5.394531 -8.925781 5.644531 -8.695312 5.75 -8.375 C 5.851562 -8.050781 5.78125 -7.691406 5.53125 -7.296875 C 4.957031 -6.429688 4.179688 -5.953125 3.203125 -5.859375 C 2.546875 -5.796875 1.914062 -5.828125 1.3125 -5.953125 C 1.195312 -5.960938 1.09375 -5.925781 1 -5.84375 C 0.914062 -5.769531 0.863281 -5.675781 0.84375 -5.5625 C 0.664062 -4.789062 0.898438 -4.300781 1.546875 -4.09375 C 2.359375 -3.8125 3.195312 -3.8125 4.0625 -4.09375 C 5.0625 -4.40625 6.007812 -4.992188 6.90625 -5.859375 C 7.8125 -6.722656 8.332031 -7.125 8.46875 -7.0625 C 8.613281 -7.007812 8.65625 -6.84375 8.59375 -6.5625 C 8.46875 -6.125 8.144531 -5.648438 7.625 -5.140625 Z M 1.921875 -7.296875 C 1.867188 -7.234375 1.832031 -7.164062 1.8125 -7.09375 C 1.789062 -7.019531 1.820312 -6.953125 1.90625 -6.890625 C 2.21875 -6.710938 2.554688 -6.644531 2.921875 -6.6875 C 3.285156 -6.738281 3.59375 -6.878906 3.84375 -7.109375 C 4.101562 -7.335938 4.21875 -7.613281 4.1875 -7.9375 C 4.15625 -8.0625 4.085938 -8.140625 3.984375 -8.171875 C 3.890625 -8.203125 3.796875 -8.207031 3.703125 -8.1875 C 3.035156 -8.070312 2.441406 -7.773438 1.921875 -7.296875 Z M 1.921875 -7.296875 "/></g></g></g><g fill="#000000" fill-opacity="1"><g transform="translate(156.821189, 210.569151)"><g><path d="M 6.421875 -8.21875 C 6.347656 -7.601562 6.0625 -7.203125 5.5625 -7.015625 C 5.0625 -6.828125 4.894531 -7.070312 5.0625 -7.75 C 5.238281 -8.4375 4.929688 -8.609375 4.140625 -8.265625 C 3.359375 -7.929688 2.710938 -7.507812 2.203125 -7 C 1.421875 -6.195312 0.726562 -5.332031 0.125 -4.40625 C 0.0625 -4.320312 0.0078125 -4.253906 -0.03125 -4.203125 C -0.207031 -3.941406 -0.382812 -3.695312 -0.5625 -3.46875 C -0.675781 -3.3125 -0.8125 -3.210938 -0.96875 -3.171875 C -1.125 -3.128906 -1.285156 -3.117188 -1.453125 -3.140625 C -1.597656 -3.160156 -1.710938 -3.21875 -1.796875 -3.3125 C -1.878906 -3.414062 -1.890625 -3.535156 -1.828125 -3.671875 C -1.722656 -3.910156 -1.601562 -4.15625 -1.46875 -4.40625 C -0.664062 -5.894531 0.148438 -7.390625 0.984375 -8.890625 C 0.992188 -8.910156 1 -8.929688 1 -8.953125 C 1.113281 -9.179688 1.253906 -9.394531 1.421875 -9.59375 C 1.597656 -9.789062 1.800781 -9.867188 2.03125 -9.828125 C 2.269531 -9.796875 2.425781 -9.660156 2.5 -9.421875 C 2.601562 -9.109375 2.6875 -8.929688 2.75 -8.890625 C 2.820312 -8.847656 2.984375 -8.875 3.234375 -8.96875 C 3.773438 -9.164062 4.300781 -9.304688 4.8125 -9.390625 C 5.320312 -9.472656 5.738281 -9.453125 6.0625 -9.328125 C 6.382812 -9.210938 6.503906 -8.84375 6.421875 -8.21875 Z M 6.421875 -8.21875 "/></g></g></g><g fill="#000000" fill-opacity="1"><g transform="translate(167.634259, 210.569151)"><g><path d="M 6.484375 -6.390625 C 6.773438 -6.679688 7.019531 -6.84375 7.21875 -6.875 C 7.414062 -6.914062 7.539062 -6.882812 7.59375 -6.78125 C 7.65625 -6.6875 7.617188 -6.554688 7.484375 -6.390625 C 6.703125 -5.441406 5.820312 -4.625 4.84375 -3.9375 C 3.875 -3.25 2.875 -2.847656 1.84375 -2.734375 C 0.8125 -2.628906 0.1875 -3.195312 -0.03125 -4.4375 C -0.1875 -5.65625 0.550781 -8.144531 2.1875 -11.90625 C 3.832031 -15.664062 5.132812 -18.75 6.09375 -21.15625 C 6.175781 -21.363281 6.296875 -21.550781 6.453125 -21.71875 C 6.671875 -21.925781 6.925781 -21.972656 7.21875 -21.859375 C 7.320312 -21.816406 7.421875 -21.742188 7.515625 -21.640625 C 7.609375 -21.546875 7.640625 -21.375 7.609375 -21.125 C 3.378906 -11.101562 1.332031 -5.65625 1.46875 -4.78125 C 1.601562 -3.90625 2.164062 -3.6875 3.15625 -4.125 C 4.15625 -4.570312 4.925781 -5.023438 5.46875 -5.484375 C 6.007812 -5.941406 6.347656 -6.242188 6.484375 -6.390625 Z M 6.484375 -6.390625 "/></g></g></g><g fill="#000000" fill-opacity="1"><g transform="translate(178.433939, 210.569151)"><g><path d="M 5.328125 -5.640625 C 4.847656 -5.078125 4.28125 -4.554688 3.625 -4.078125 C 2.976562 -3.609375 2.242188 -3.289062 1.421875 -3.125 C 0.597656 -2.957031 -0.0351562 -3.015625 -0.484375 -3.296875 C -0.941406 -3.585938 -1.035156 -4.226562 -0.765625 -5.21875 C -0.410156 -6.226562 0.078125 -7.195312 0.703125 -8.125 C 0.847656 -8.3125 1.054688 -8.445312 1.328125 -8.53125 C 1.523438 -8.570312 1.695312 -8.535156 1.84375 -8.421875 C 1.988281 -8.316406 2.046875 -8.179688 2.015625 -8.015625 C 1.878906 -7.691406 1.726562 -7.367188 1.5625 -7.046875 C 1.40625 -6.722656 1.300781 -6.515625 1.25 -6.421875 C 0.9375 -5.847656 0.71875 -5.25 0.59375 -4.625 C 0.59375 -4.269531 1.066406 -4.25 2.015625 -4.5625 C 2.972656 -4.875 3.898438 -5.445312 4.796875 -6.28125 C 5.703125 -7.113281 6.132812 -7.359375 6.09375 -7.015625 C 6.0625 -6.671875 5.804688 -6.210938 5.328125 -5.640625 Z M 2.984375 -10.125 C 2.941406 -10.09375 2.847656 -10.050781 2.703125 -10 C 2.566406 -9.945312 2.421875 -9.910156 2.265625 -9.890625 C 2.109375 -9.867188 1.984375 -9.894531 1.890625 -9.96875 C 1.804688 -10.039062 1.804688 -10.179688 1.890625 -10.390625 C 2.035156 -10.765625 2.1875 -11.09375 2.34375 -11.375 C 2.5 -11.65625 2.703125 -11.96875 2.953125 -12.3125 C 3.109375 -12.46875 3.28125 -12.550781 3.46875 -12.5625 C 3.65625 -12.570312 3.8125 -12.519531 3.9375 -12.40625 C 4.0625 -12.300781 4.097656 -12.148438 4.046875 -11.953125 C 3.847656 -11.242188 3.492188 -10.632812 2.984375 -10.125 Z M 2.984375 -10.125 "/></g></g></g><g fill="#000000" fill-opacity="1"><g transform="translate(187.77353, 210.569151)"><g><path d="M 10.609375 -6.6875 C 10.753906 -6.507812 10.578125 -6.179688 10.078125 -5.703125 C 9.578125 -5.234375 9.046875 -4.835938 8.484375 -4.515625 C 7.921875 -4.191406 7.269531 -3.867188 6.53125 -3.546875 C 6.03125 -3.335938 5.503906 -3.265625 4.953125 -3.328125 C 4.398438 -3.398438 4.125 -3.734375 4.125 -4.328125 C 4.125 -4.929688 4.265625 -5.53125 4.546875 -6.125 C 4.816406 -6.726562 4.875 -7.039062 4.71875 -7.0625 C 4.5625 -7.082031 4.238281 -6.9375 3.75 -6.625 C 2.46875 -5.78125 1.28125 -4.816406 0.1875 -3.734375 C -0.101562 -3.378906 -0.476562 -3.179688 -0.9375 -3.140625 C -1.164062 -3.140625 -1.34375 -3.210938 -1.46875 -3.359375 C -1.601562 -3.515625 -1.625 -3.675781 -1.53125 -3.84375 C -0.738281 -5.300781 0.0546875 -6.738281 0.859375 -8.15625 C 1.035156 -8.445312 1.300781 -8.628906 1.65625 -8.703125 C 1.8125 -8.734375 1.953125 -8.6875 2.078125 -8.5625 C 2.210938 -8.445312 2.28125 -8.3125 2.28125 -8.15625 C 2.257812 -8.007812 2.203125 -7.84375 2.109375 -7.65625 C 2.054688 -7.53125 2.007812 -7.414062 1.96875 -7.3125 C 1.9375 -7.207031 1.925781 -7.117188 1.9375 -7.046875 C 1.945312 -6.972656 2.003906 -6.953125 2.109375 -6.984375 C 2.234375 -7.054688 2.363281 -7.128906 2.5 -7.203125 C 2.84375 -7.398438 3.171875 -7.585938 3.484375 -7.765625 C 3.765625 -7.929688 4.054688 -8.078125 4.359375 -8.203125 C 4.660156 -8.328125 4.976562 -8.410156 5.3125 -8.453125 C 5.84375 -8.484375 6.21875 -8.359375 6.4375 -8.078125 C 6.664062 -7.804688 6.695312 -7.425781 6.53125 -6.9375 C 6.34375 -6.488281 6.15625 -6.046875 5.96875 -5.609375 C 5.71875 -5.203125 5.671875 -4.890625 5.828125 -4.671875 C 5.992188 -4.460938 6.742188 -4.707031 8.078125 -5.40625 L 9.078125 -6 C 10.023438 -6.601562 10.535156 -6.832031 10.609375 -6.6875 Z M 10.609375 -6.6875 "/></g></g></g><g fill="#000000" fill-opacity="1"><g transform="translate(201.707718, 210.569151)"><g/></g></g><g fill="#000000" fill-opacity="1"><g transform="translate(215.949992, 210.569151)"><g><path d="M 12.328125 -32.46875 C 12.503906 -32.46875 12.660156 -32.40625 12.796875 -32.28125 C 12.941406 -32.164062 13.019531 -32.035156 13.03125 -31.890625 C 13.050781 -31.585938 13.046875 -31.300781 13.015625 -31.03125 C 12.992188 -30.726562 12.953125 -30.453125 12.890625 -30.203125 C 12.867188 -30.078125 12.859375 -29.96875 12.859375 -29.875 C 12.148438 -26.664062 11.265625 -23.53125 10.203125 -20.46875 C 10.109375 -20.125 10.0625 -19.769531 10.0625 -19.40625 C 10.09375 -18.976562 10.007812 -18.578125 9.8125 -18.203125 C 9.375 -17.535156 9.015625 -16.835938 8.734375 -16.109375 C 6.921875 -10.941406 4.972656 -5.835938 2.890625 -0.796875 C 1.140625 3.523438 -0.835938 7.753906 -3.046875 11.890625 C -3.660156 12.960938 -4.3125 14.03125 -5 15.09375 C -5.332031 15.550781 -5.707031 15.976562 -6.125 16.375 C -6.5 16.6875 -6.929688 16.773438 -7.421875 16.640625 C -7.929688 16.515625 -8.175781 16.1875 -8.15625 15.65625 C -8.09375 15.03125 -7.957031 14.425781 -7.75 13.84375 C -6.46875 10.300781 -5.050781 6.820312 -3.5 3.40625 C -0.644531 -3.082031 2.664062 -9.3125 6.4375 -15.28125 C 7.125 -16.425781 7.65625 -17.613281 8.03125 -18.84375 C 8.695312 -20.851562 9.320312 -22.867188 9.90625 -24.890625 C 10.5 -26.921875 11.007812 -28.96875 11.4375 -31.03125 C 11.5 -31.363281 11.582031 -31.695312 11.6875 -32.03125 C 11.800781 -32.320312 12.015625 -32.46875 12.328125 -32.46875 Z M -5.359375 12.890625 C -3.523438 9.546875 -1.859375 6.140625 -0.359375 2.671875 C 1.140625 -0.785156 2.519531 -4.316406 3.78125 -7.921875 C 3.757812 -7.898438 3.738281 -7.867188 3.71875 -7.828125 C 3.65625 -7.785156 3.597656 -7.734375 3.546875 -7.671875 C 3.398438 -7.421875 3.265625 -7.175781 3.140625 -6.9375 C 1.484375 -3.875 -0.046875 -0.753906 -1.453125 2.421875 C -2.859375 5.609375 -4.203125 8.8125 -5.484375 12.03125 C -5.492188 12.070312 -5.5 12.101562 -5.5 12.125 C -5.5625 12.21875 -5.59375 12.328125 -5.59375 12.453125 C -5.59375 12.585938 -5.515625 12.734375 -5.359375 12.890625 Z M 71.125 -33.21875 C 71.125 -33.132812 71.082031 -33.050781 71 -32.96875 C 70.925781 -32.882812 70.84375 -32.820312 70.75 -32.78125 C 70.65625 -32.75 70.566406 -32.753906 70.484375 -32.796875 C 69.972656 -33.109375 69.429688 -33.316406 68.859375 -33.421875 C 68.285156 -33.535156 67.710938 -33.625 67.140625 -33.6875 C 66.710938 -33.695312 66.296875 -33.742188 65.890625 -33.828125 C 64.347656 -34.054688 62.8125 -34.253906 61.28125 -34.421875 C 56.226562 -34.828125 51.164062 -35.050781 46.09375 -35.09375 C 41.207031 -35.15625 36.320312 -35.046875 31.4375 -34.765625 C 25.914062 -34.484375 20.398438 -34.070312 14.890625 -33.53125 C 9.835938 -33.070312 4.796875 -32.523438 -0.234375 -31.890625 C -0.546875 -31.835938 -0.867188 -31.796875 -1.203125 -31.765625 C -3.128906 -31.503906 -5.046875 -31.222656 -6.953125 -30.921875 C -8.867188 -30.628906 -10.785156 -30.269531 -12.703125 -29.84375 C -12.847656 -29.800781 -13.003906 -29.765625 -13.171875 -29.734375 C -13.910156 -29.546875 -14.65625 -29.34375 -15.40625 -29.125 C -16.15625 -28.914062 -16.875 -28.632812 -17.5625 -28.28125 C -17.664062 -28.226562 -17.773438 -28.1875 -17.890625 -28.15625 C -18.035156 -28.144531 -18.175781 -28.15625 -18.3125 -28.1875 C -18.457031 -28.21875 -18.570312 -28.296875 -18.65625 -28.421875 C -18.726562 -28.566406 -18.734375 -28.703125 -18.671875 -28.828125 C -18.617188 -28.953125 -18.519531 -29.054688 -18.375 -29.140625 C -17.9375 -29.367188 -17.46875 -29.570312 -16.96875 -29.75 C -15.75 -30.164062 -14.515625 -30.515625 -13.265625 -30.796875 C -12.023438 -31.085938 -10.773438 -31.335938 -9.515625 -31.546875 C -5.878906 -32.160156 -2.242188 -32.695312 1.390625 -33.15625 C 5.023438 -33.625 8.679688 -34.035156 12.359375 -34.390625 C 17.503906 -34.921875 22.660156 -35.34375 27.828125 -35.65625 C 32.328125 -35.945312 36.828125 -36.113281 41.328125 -36.15625 C 44.628906 -36.195312 47.929688 -36.164062 51.234375 -36.0625 C 54.535156 -35.96875 57.832031 -35.769531 61.125 -35.46875 C 64.132812 -35.15625 67.125 -34.695312 70.09375 -34.09375 C 70.375 -34.03125 70.628906 -33.929688 70.859375 -33.796875 C 71.054688 -33.660156 71.144531 -33.46875 71.125 -33.21875 Z M 71.125 -33.21875 "/></g></g></g><g fill="#000000" fill-opacity="1"><g transform="translate(229.88418, 210.569151)"><g><path d="M 9.71875 -6.8125 C 9.925781 -6.695312 9.941406 -6.410156 9.765625 -5.953125 C 9.503906 -5.609375 9.226562 -5.289062 8.9375 -5 C 8.644531 -4.707031 8.320312 -4.441406 7.96875 -4.203125 C 7.945312 -4.203125 7.9375 -4.195312 7.9375 -4.1875 C 7.695312 -4.019531 7.445312 -3.878906 7.1875 -3.765625 C 5.0625 -2.992188 3.972656 -3.445312 3.921875 -5.125 C 3.054688 -4.375 2.476562 -3.910156 2.1875 -3.734375 C 1.476562 -3.316406 0.710938 -3.128906 -0.109375 -3.171875 C -0.710938 -3.210938 -1.125 -3.398438 -1.34375 -3.734375 C -1.5625 -4.066406 -1.539062 -4.519531 -1.28125 -5.09375 C -0.894531 -5.988281 -0.335938 -6.789062 0.390625 -7.5 C 1.234375 -8.289062 2.175781 -8.921875 3.21875 -9.390625 C 3.769531 -9.671875 4.347656 -9.78125 4.953125 -9.71875 C 5.566406 -9.675781 5.9375 -9.332031 6.0625 -8.6875 C 6.113281 -8.488281 6.0625 -8.3125 5.90625 -8.15625 C 5.707031 -7.976562 5.476562 -7.9375 5.21875 -8.03125 C 5.207031 -8.03125 5.1875 -8.035156 5.15625 -8.046875 C 5.125 -8.054688 5.097656 -8.070312 5.078125 -8.09375 C 4.816406 -8.445312 4.554688 -8.59375 4.296875 -8.53125 C 4.035156 -8.476562 3.753906 -8.363281 3.453125 -8.1875 C 2.078125 -7.382812 1.054688 -6.265625 0.390625 -4.828125 C 0.347656 -4.765625 0.320312 -4.691406 0.3125 -4.609375 C 0.3125 -4.535156 0.335938 -4.476562 0.390625 -4.4375 C 0.546875 -4.382812 0.722656 -4.394531 0.921875 -4.46875 C 1.117188 -4.539062 1.316406 -4.648438 1.515625 -4.796875 C 1.710938 -4.953125 1.878906 -5.078125 2.015625 -5.171875 C 2.023438 -5.203125 2.03125 -5.21875 2.03125 -5.21875 C 2.6875 -5.757812 3.328125 -6.316406 3.953125 -6.890625 C 4.234375 -7.179688 4.578125 -7.34375 4.984375 -7.375 C 5.578125 -7.375 5.820312 -7.113281 5.71875 -6.59375 C 5.664062 -6.394531 5.609375 -6.195312 5.546875 -6 C 5.316406 -5.15625 5.304688 -4.65625 5.515625 -4.5 C 5.734375 -4.351562 6.0625 -4.351562 6.5 -4.5 C 6.945312 -4.65625 7.390625 -4.9375 7.828125 -5.34375 C 8.273438 -5.757812 8.648438 -6.140625 8.953125 -6.484375 C 9.253906 -6.828125 9.507812 -6.9375 9.71875 -6.8125 Z M 9.71875 -6.8125 "/></g></g></g><g fill="#000000" fill-opacity="1"><g transform="translate(242.880696, 210.569151)"><g><path d="M 8.375 -6.46875 C 7.175781 -5.0625 6.003906 -4.019531 4.859375 -3.34375 C 3.710938 -2.675781 2.484375 -2.457031 1.171875 -2.6875 C -0.140625 -2.914062 -0.675781 -3.789062 -0.4375 -5.3125 C -0.28125 -6.082031 -0.0625 -6.832031 0.21875 -7.5625 C 0.90625 -9.269531 1.597656 -10.96875 2.296875 -12.65625 C 2.535156 -13.269531 2.785156 -13.882812 3.046875 -14.5 C 3.109375 -14.632812 3.164062 -14.765625 3.21875 -14.890625 C 3.3125 -15.117188 3.410156 -15.347656 3.515625 -15.578125 C 3.648438 -15.972656 3.492188 -16.179688 3.046875 -16.203125 C 2.785156 -16.203125 2.53125 -16.203125 2.28125 -16.203125 C 2.164062 -16.203125 2.035156 -16.203125 1.890625 -16.203125 C 1.753906 -16.179688 1.613281 -16.160156 1.46875 -16.140625 C 1.238281 -16.117188 1.007812 -16.109375 0.78125 -16.109375 C 0.550781 -16.109375 0.335938 -16.171875 0.140625 -16.296875 C 0.0859375 -16.304688 0.046875 -16.335938 0.015625 -16.390625 C -0.015625 -16.441406 -0.03125 -16.5 -0.03125 -16.5625 C -0.0078125 -16.59375 0.0195312 -16.632812 0.0625 -16.6875 C 0.101562 -16.738281 0.15625 -16.769531 0.21875 -16.78125 C 0.414062 -16.863281 0.617188 -16.921875 0.828125 -16.953125 C 1.378906 -16.984375 1.929688 -17.007812 2.484375 -17.03125 C 2.691406 -17.03125 2.878906 -17.03125 3.046875 -17.03125 C 3.398438 -17.03125 3.660156 -17.039062 3.828125 -17.0625 C 4.003906 -17.09375 4.144531 -17.1875 4.25 -17.34375 C 4.363281 -17.507812 4.492188 -17.757812 4.640625 -18.09375 C 4.710938 -18.269531 4.8125 -18.460938 4.9375 -18.671875 C 5.226562 -19.296875 5.519531 -19.9375 5.8125 -20.59375 C 5.945312 -20.882812 6.085938 -21.171875 6.234375 -21.453125 C 6.347656 -21.722656 6.53125 -21.9375 6.78125 -22.09375 C 7.019531 -22.207031 7.226562 -22.195312 7.40625 -22.0625 C 7.457031 -22.03125 7.5 -21.972656 7.53125 -21.890625 C 7.5625 -21.804688 7.578125 -21.734375 7.578125 -21.671875 C 7.578125 -21.328125 7.488281 -20.984375 7.3125 -20.640625 C 7.28125 -20.566406 7.238281 -20.484375 7.1875 -20.390625 C 7.070312 -20.066406 6.945312 -19.738281 6.8125 -19.40625 C 6.5625 -18.800781 6.316406 -18.179688 6.078125 -17.546875 C 6.015625 -17.429688 6.007812 -17.328125 6.0625 -17.234375 C 6.125 -17.148438 6.21875 -17.109375 6.34375 -17.109375 C 6.96875 -17.085938 7.585938 -17.078125 8.203125 -17.078125 C 8.515625 -17.078125 8.828125 -17.078125 9.140625 -17.078125 C 10.117188 -17.054688 10.507812 -16.921875 10.3125 -16.671875 C 10.175781 -16.515625 10.03125 -16.425781 9.875 -16.40625 C 9.71875 -16.382812 9.5625 -16.382812 9.40625 -16.40625 C 9.300781 -16.40625 9.203125 -16.40625 9.109375 -16.40625 C 8.109375 -16.34375 7.117188 -16.304688 6.140625 -16.296875 C 5.679688 -16.296875 5.375 -16.085938 5.21875 -15.671875 C 5.0625 -15.273438 4.90625 -14.882812 4.75 -14.5 C 4.53125 -13.976562 4.320312 -13.472656 4.125 -12.984375 C 3.925781 -12.515625 3.726562 -12.046875 3.53125 -11.578125 C 3.019531 -10.378906 2.53125 -9.175781 2.0625 -7.96875 C 1.769531 -7.1875 1.535156 -6.382812 1.359375 -5.5625 C 0.984375 -4.070312 1.5625 -3.5 3.09375 -3.84375 C 4.59375 -4.195312 6.164062 -5.28125 7.8125 -7.09375 C 8.519531 -7.539062 8.707031 -7.332031 8.375 -6.46875 Z M 8.375 -6.46875 "/></g></g></g><g fill="#000000" fill-opacity="1"><g transform="translate(254.604653, 210.569151)"><g><path d="M 8.375 -6.46875 C 7.175781 -5.0625 6.003906 -4.019531 4.859375 -3.34375 C 3.710938 -2.675781 2.484375 -2.457031 1.171875 -2.6875 C -0.140625 -2.914062 -0.675781 -3.789062 -0.4375 -5.3125 C -0.28125 -6.082031 -0.0625 -6.832031 0.21875 -7.5625 C 0.90625 -9.269531 1.597656 -10.96875 2.296875 -12.65625 C 2.535156 -13.269531 2.785156 -13.882812 3.046875 -14.5 C 3.109375 -14.632812 3.164062 -14.765625 3.21875 -14.890625 C 3.3125 -15.117188 3.410156 -15.347656 3.515625 -15.578125 C 3.648438 -15.972656 3.492188 -16.179688 3.046875 -16.203125 C 2.785156 -16.203125 2.53125 -16.203125 2.28125 -16.203125 C 2.164062 -16.203125 2.035156 -16.203125 1.890625 -16.203125 C 1.753906 -16.179688 1.613281 -16.160156 1.46875 -16.140625 C 1.238281 -16.117188 1.007812 -16.109375 0.78125 -16.109375 C 0.550781 -16.109375 0.335938 -16.171875 0.140625 -16.296875 C 0.0859375 -16.304688 0.046875 -16.335938 0.015625 -16.390625 C -0.015625 -16.441406 -0.03125 -16.5 -0.03125 -16.5625 C -0.0078125 -16.59375 0.0195312 -16.632812 0.0625 -16.6875 C 0.101562 -16.738281 0.15625 -16.769531 0.21875 -16.78125 C 0.414062 -16.863281 0.617188 -16.921875 0.828125 -16.953125 C 1.378906 -16.984375 1.929688 -17.007812 2.484375 -17.03125 C 2.691406 -17.03125 2.878906 -17.03125 3.046875 -17.03125 C 3.398438 -17.03125 3.660156 -17.039062 3.828125 -17.0625 C 4.003906 -17.09375 4.144531 -17.1875 4.25 -17.34375 C 4.363281 -17.507812 4.492188 -17.757812 4.640625 -18.09375 C 4.710938 -18.269531 4.8125 -18.460938 4.9375 -18.671875 C 5.226562 -19.296875 5.519531 -19.9375 5.8125 -20.59375 C 5.945312 -20.882812 6.085938 -21.171875 6.234375 -21.453125 C 6.347656 -21.722656 6.53125 -21.9375 6.78125 -22.09375 C 7.019531 -22.207031 7.226562 -22.195312 7.40625 -22.0625 C 7.457031 -22.03125 7.5 -21.972656 7.53125 -21.890625 C 7.5625 -21.804688 7.578125 -21.734375 7.578125 -21.671875 C 7.578125 -21.328125 7.488281 -20.984375 7.3125 -20.640625 C 7.28125 -20.566406 7.238281 -20.484375 7.1875 -20.390625 C 7.070312 -20.066406 6.945312 -19.738281 6.8125 -19.40625 C 6.5625 -18.800781 6.316406 -18.179688 6.078125 -17.546875 C 6.015625 -17.429688 6.007812 -17.328125 6.0625 -17.234375 C 6.125 -17.148438 6.21875 -17.109375 6.34375 -17.109375 C 6.96875 -17.085938 7.585938 -17.078125 8.203125 -17.078125 C 8.515625 -17.078125 8.828125 -17.078125 9.140625 -17.078125 C 10.117188 -17.054688 10.507812 -16.921875 10.3125 -16.671875 C 10.175781 -16.515625 10.03125 -16.425781 9.875 -16.40625 C 9.71875 -16.382812 9.5625 -16.382812 9.40625 -16.40625 C 9.300781 -16.40625 9.203125 -16.40625 9.109375 -16.40625 C 8.109375 -16.34375 7.117188 -16.304688 6.140625 -16.296875 C 5.679688 -16.296875 5.375 -16.085938 5.21875 -15.671875 C 5.0625 -15.273438 4.90625 -14.882812 4.75 -14.5 C 4.53125 -13.976562 4.320312 -13.472656 4.125 -12.984375 C 3.925781 -12.515625 3.726562 -12.046875 3.53125 -11.578125 C 3.019531 -10.378906 2.53125 -9.175781 2.0625 -7.96875 C 1.769531 -7.1875 1.535156 -6.382812 1.359375 -5.5625 C 0.984375 -4.070312 1.5625 -3.5 3.09375 -3.84375 C 4.59375 -4.195312 6.164062 -5.28125 7.8125 -7.09375 C 8.519531 -7.539062 8.707031 -7.332031 8.375 -6.46875 Z M 8.375 -6.46875 "/></g></g></g><g fill="#000000" fill-opacity="1"><g transform="translate(266.328609, 210.569151)"><g><path d="M 2.125 -3.171875 L 2.09375 -3.171875 C 0.789062 -3.191406 -0.0625 -3.476562 -0.46875 -4.03125 C -0.875 -4.59375 -0.859375 -5.335938 -0.421875 -6.265625 C -0.046875 -6.972656 0.425781 -7.59375 1 -8.125 C 1.195312 -8.300781 1.398438 -8.441406 1.609375 -8.546875 C 1.816406 -8.648438 2.046875 -8.703125 2.296875 -8.703125 C 2.453125 -8.734375 2.628906 -8.707031 2.828125 -8.625 C 2.890625 -8.601562 2.953125 -8.582031 3.015625 -8.5625 C 3.160156 -8.582031 3.304688 -8.628906 3.453125 -8.703125 C 3.492188 -8.734375 3.546875 -8.757812 3.609375 -8.78125 C 3.898438 -8.894531 4.210938 -8.941406 4.546875 -8.921875 C 4.679688 -8.921875 4.816406 -8.921875 4.953125 -8.921875 C 5.484375 -8.835938 5.878906 -8.613281 6.140625 -8.25 C 6.410156 -7.894531 6.507812 -7.457031 6.4375 -6.9375 C 6.382812 -6.625 6.285156 -6.332031 6.140625 -6.0625 C 5.109375 -4.21875 3.796875 -3.253906 2.203125 -3.171875 Z M 4.25 -7.96875 C 3.539062 -8 2.910156 -7.796875 2.359375 -7.359375 C 1.816406 -6.929688 1.410156 -6.4375 1.140625 -5.875 C 0.867188 -5.3125 0.789062 -4.847656 0.90625 -4.484375 C 1.03125 -4.117188 1.40625 -4.019531 2.03125 -4.1875 C 2.738281 -4.394531 3.363281 -4.789062 3.90625 -5.375 C 4.445312 -5.96875 4.773438 -6.53125 4.890625 -7.0625 C 5.015625 -7.59375 4.800781 -7.894531 4.25 -7.96875 Z M 4.25 -7.96875 "/></g></g></g><g fill="#000000" fill-opacity="1"><g transform="translate(277.556944, 210.569151)"><g><path d="M 2.125 -3.171875 L 2.09375 -3.171875 C 0.789062 -3.191406 -0.0625 -3.476562 -0.46875 -4.03125 C -0.875 -4.59375 -0.859375 -5.335938 -0.421875 -6.265625 C -0.046875 -6.972656 0.425781 -7.59375 1 -8.125 C 1.195312 -8.300781 1.398438 -8.441406 1.609375 -8.546875 C 1.816406 -8.648438 2.046875 -8.703125 2.296875 -8.703125 C 2.453125 -8.734375 2.628906 -8.707031 2.828125 -8.625 C 2.890625 -8.601562 2.953125 -8.582031 3.015625 -8.5625 C 3.160156 -8.582031 3.304688 -8.628906 3.453125 -8.703125 C 3.492188 -8.734375 3.546875 -8.757812 3.609375 -8.78125 C 3.898438 -8.894531 4.210938 -8.941406 4.546875 -8.921875 C 4.679688 -8.921875 4.816406 -8.921875 4.953125 -8.921875 C 5.484375 -8.835938 5.878906 -8.613281 6.140625 -8.25 C 6.410156 -7.894531 6.507812 -7.457031 6.4375 -6.9375 C 6.382812 -6.625 6.285156 -6.332031 6.140625 -6.0625 C 5.109375 -4.21875 3.796875 -3.253906 2.203125 -3.171875 Z M 4.25 -7.96875 C 3.539062 -8 2.910156 -7.796875 2.359375 -7.359375 C 1.816406 -6.929688 1.410156 -6.4375 1.140625 -5.875 C 0.867188 -5.3125 0.789062 -4.847656 0.90625 -4.484375 C 1.03125 -4.117188 1.40625 -4.019531 2.03125 -4.1875 C 2.738281 -4.394531 3.363281 -4.789062 3.90625 -5.375 C 4.445312 -5.96875 4.773438 -6.53125 4.890625 -7.0625 C 5.015625 -7.59375 4.800781 -7.894531 4.25 -7.96875 Z M 4.25 -7.96875 "/></g></g></g></svg>